<?xml version="1.0" encoding="UTF-8"?>
<svg version="1.1" xmlns="http://www.w3.org/2000/svg" width="430" height="430">
<path d="M0 0 C0.96119247 0.00270401 1.92238495 0.00540802 2.91270447 0.00819397 C3.97127151 0.01642685 5.02983856 0.02465973 6.1204834 0.03314209 C7.78930321 0.04032509 7.78930321 0.04032509 9.49183655 0.0476532 C13.19297833 0.06542092 16.89400698 0.09116487 20.59509277 0.11810303 C23.17228168 0.13479956 25.74947081 0.15146167 28.32666016 0.16809082 C33.74739218 0.20464362 39.16806623 0.24586278 44.58874512 0.28948975 C50.8106757 0.33937581 57.03257408 0.37478962 63.25463533 0.40342355 C69.2710882 0.43195509 75.28731858 0.47657869 81.30363464 0.52672577 C83.84536155 0.54577063 86.38712837 0.56014245 88.9289093 0.56952667 C121.87095941 0.70319447 150.4759055 6.03208364 174.43884277 30.10247803 C175.18778809 30.80372803 175.9367334 31.50497803 176.70837402 32.22747803 C187.91702625 42.85748091 195.56665798 57.19275712 199.43884277 72.10247803 C199.78946777 73.36060303 200.14009277 74.61872803 200.50134277 75.91497803 C202.30295281 83.39095037 202.56115758 90.94302454 202.68884277 98.60247803 C202.71027344 99.2706958 202.7317041 99.93891357 202.75378418 100.62738037 C202.85391972 116.81595938 198.00491163 133.38712225 194.47009277 149.06072998 C193.69146938 152.52828059 192.93216777 155.9997166 192.17321777 159.47161865 C186.83248087 183.48184889 180.11774158 205.28464878 162.43884277 223.10247803 C161.59321777 223.98935303 160.74759277 224.87622803 159.87634277 225.78997803 C159.07196777 226.55310303 158.26759277 227.31622803 157.43884277 228.10247803 C156.92708496 228.60907959 156.41532715 229.11568115 155.88806152 229.63763428 C136.42819971 247.93073778 111.26239988 253.56456074 85.36242676 253.53485107 C83.73431673 253.54389841 82.10621343 253.55423273 80.4781189 253.56573486 C76.11767568 253.59298273 71.75736278 253.60254481 67.39684558 253.60858893 C62.81778102 253.61805779 58.23881067 253.64426704 53.6598053 253.66859436 C45.0153528 253.71203133 36.37091882 253.7407176 27.7263909 253.76391774 C17.87365034 253.79109267 8.02100562 253.83499587 -1.83166611 253.88020647 C-22.07477803 253.97272561 -42.31791865 254.04455509 -62.56115723 254.10247803 C-62.89115723 252.78247803 -63.22115723 251.46247803 -63.56115723 250.10247803 C-56.5680826 244.05659218 -49.57766143 238.0296706 -42.32287598 232.29779053 C-38.6893937 229.40950617 -35.09610668 226.47293308 -31.49865723 223.53997803 C-26.66136698 219.60229899 -21.8090427 215.69323847 -16.86975098 211.88372803 C-5.9580229 203.46452667 4.767942 194.82383218 15.43884277 186.10247803 C16.4520459 185.2748999 17.46524902 184.44732178 18.50915527 183.59466553 C21.15375567 181.43227147 23.79652235 179.26765713 26.43884277 177.10247803 C28.27205925 175.60233522 30.10539423 174.1023372 31.93884277 172.60247803 C32.84634277 171.85997803 33.75384277 171.11747803 34.68884277 170.35247803 C37.43884277 168.10247803 40.18884277 165.85247803 42.93884277 163.60247803 C43.8489209 162.8573999 44.75899902 162.11232178 45.69665527 161.34466553 C47.50208688 159.86842942 49.30933418 158.39441067 51.11853027 156.92279053 C56.12407373 152.84581166 61.08355889 148.72192852 66.00134277 144.53997803 C72.66689612 138.87450401 79.41770882 133.32454591 86.43884277 128.10247803 C85.87758729 123.99645105 83.5126154 121.29748495 81.00134277 118.16497803 C80.08058926 116.99324492 79.16002118 115.82136608 78.23962402 114.64935303 C77.76992187 114.05573975 77.30021973 113.46212646 76.81628418 112.8505249 C74.74766534 110.22533686 72.71995792 107.56923795 70.68884277 104.91497803 C67.87345165 101.24582613 65.04164614 97.59029138 62.18884277 93.95013428 C56.15775041 86.24762132 50.21364708 78.49951482 44.43884277 70.60247803 C38.18987298 62.06030031 31.74237609 53.69006116 25.21081543 45.36273193 C22.17495552 41.49031653 19.14957126 37.60975928 16.12634277 33.72747803 C15.54102783 32.97595459 14.95571289 32.22443115 14.35266113 31.45013428 C10.31301147 26.25293762 6.33676355 21.01470267 2.41540527 15.72747803 C-0.09055693 12.39940174 -2.70248199 9.16168121 -5.34631348 5.94232178 C-6.56115723 4.10247803 -6.56115723 4.10247803 -6.56115723 1.10247803 C-4.15571754 -0.10024182 -2.68577747 -0.01410805 0 0 Z " fill="#FE5649" transform="translate(145.5611572265625,87.89752197265625)"/>
<path d="M0 0 C0.66 0 1.32 0 2 0 C1.48230385 4.52984135 -0.18200092 6.49654169 -3 10 C-4.53418415 12.66645526 -5.97499188 15.37511104 -7.421875 18.08984375 C-9.37905608 21.69900192 -11.48890785 25.2009475 -13.6171875 28.7109375 C-16.24004253 33.05272577 -18.80345629 37.42386727 -21 42 C-21.66 42 -22.32 42 -23 42 C-23.38671875 43.31291016 -23.38671875 43.31291016 -23.78125 44.65234375 C-25.00861411 48.02366119 -26.50562213 50.59206008 -28.5 53.5625 C-30.7799095 56.9678733 -32.6042183 60.14066359 -34 64 C-34.66 64 -35.32 64 -36 64 C-36.226875 64.825 -36.45375 65.65 -36.6875 66.5 C-38.02482689 70.06620505 -39.6981456 72.90755034 -41.78125 76.0703125 C-42.99637889 77.99426658 -44.01590902 79.94981046 -45 82 C-45.66 82 -46.32 82 -47 82 C-47.21785156 82.80179687 -47.43570313 83.60359375 -47.66015625 84.4296875 C-49.3888441 89.03616184 -51.83517713 92.96535484 -54.4375 97.125 C-54.92798828 97.92292969 -55.41847656 98.72085938 -55.92382812 99.54296875 C-59.5724562 105.44183034 -59.5724562 105.44183034 -61.62133789 108.11669922 C-63.0725685 110.09913112 -63.57181151 111.60214445 -64 114 C-64.66 114 -65.32 114 -66 114 C-66.268125 115.0725 -66.53625 116.145 -66.8125 117.25 C-68 121 -68 121 -71 125 C-28.43 125.495 -28.43 125.495 15 126 C15 126.33 15 126.66 15 127 C-39.45 127.33 -93.9 127.66 -150 128 C-150.33 126.68 -150.66 125.36 -151 124 C-144.00692537 117.95411416 -137.0165042 111.92719257 -129.76171875 106.1953125 C-126.12823647 103.30702814 -122.53494945 100.37045505 -118.9375 97.4375 C-114.10020976 93.49982097 -109.24788548 89.59076044 -104.30859375 85.78125 C-93.39686567 77.36204864 -82.67090077 68.72135415 -72 60 C-70.98679687 59.17242187 -69.97359375 58.34484375 -68.9296875 57.4921875 C-66.2850871 55.32979344 -63.64232042 53.1651791 -61 51 C-59.16678352 49.49985719 -57.33344854 47.99985918 -55.5 46.5 C-54.5925 45.7575 -53.685 45.015 -52.75 44.25 C-50 42 -47.25 39.75 -44.5 37.5 C-43.58992188 36.75492188 -42.67984375 36.00984375 -41.7421875 35.2421875 C-39.93675589 33.7659514 -38.12950859 32.29193264 -36.3203125 30.8203125 C-30.7529996 26.28577649 -25.2503078 21.68407151 -19.78369141 17.02929688 C-15.62639027 13.50038158 -11.374916 10.10423568 -7.09375 6.7265625 C-5.27688565 5.22832735 -3.62949848 3.69581528 -2 2 C-1.34 1.34 -0.68 0.68 0 0 Z " fill="#C82E3C" transform="translate(233,214)"/>
<path d="M0 0 C0.96119247 0.00270401 1.92238495 0.00540802 2.91270447 0.00819397 C3.97127151 0.01642685 5.02983856 0.02465973 6.1204834 0.03314209 C7.78930321 0.04032509 7.78930321 0.04032509 9.49183655 0.0476532 C13.19297833 0.06542092 16.89400698 0.09116487 20.59509277 0.11810303 C23.17228168 0.13479956 25.74947081 0.15146167 28.32666016 0.16809082 C33.74739218 0.20464362 39.16806623 0.24586278 44.58874512 0.28948975 C50.8106757 0.33937581 57.03257408 0.37478962 63.25463533 0.40342355 C69.2710882 0.43195509 75.28731858 0.47657869 81.30363464 0.52672577 C83.84536155 0.54577063 86.38712837 0.56014245 88.9289093 0.56952667 C106.11656833 0.63926843 123.19951683 0.78718461 139.43884277 7.10247803 C136.42852534 8.03671447 135.5723401 8.14697714 132.43884277 7.10247803 C125.17060258 6.25538816 117.93444892 6.04708267 110.62536621 6.137146 C107.55528671 6.10374489 104.57562398 5.87107319 101.52087402 5.57513428 C94.69581946 5.02692547 87.98777033 5.16432096 81.15240479 5.45483398 C77.65089125 5.60198299 74.14841374 5.72096198 70.64587402 5.84075928 C69.59834961 5.87704437 69.59834961 5.87704437 68.52966309 5.9140625 C54.92281089 6.36945697 41.33929976 6.47345226 27.76696777 5.33685303 C23.73876158 5.05317653 19.7259623 4.91359204 15.68884277 4.85247803 C14.99597168 4.8312085 14.30310059 4.80993896 13.5892334 4.7880249 C11.42819575 4.73751154 11.42819575 4.73751154 8.43884277 5.10247803 C6.14250453 8.54698539 5.89867793 11.04060086 5.43884277 15.10247803 C2.44491884 14.76532443 1.45052535 14.11437379 -0.70178223 11.92279053 C-1.39787598 11.0333374 -2.09396973 10.14388428 -2.81115723 9.22747803 C-3.51756348 8.34318115 -4.22396973 7.45888428 -4.95178223 6.54779053 C-6.56115723 4.10247803 -6.56115723 4.10247803 -6.56115723 1.10247803 C-4.15571754 -0.10024182 -2.68577747 -0.01410805 0 0 Z " fill="#BF553F" transform="translate(145.5611572265625,87.89752197265625)"/>
<path d="M0 0 C14.18098641 3.91199625 24.73101643 11.82070188 35 22 C35.75152344 22.70253906 36.50304687 23.40507813 37.27734375 24.12890625 C48.47683499 34.76949774 56.12715962 49.0877548 60 64 C60.350625 65.258125 60.70125 66.51625 61.0625 67.8125 C66.56039197 90.62658713 61.19098649 113.70774328 56 136 C55.67 136 55.34 136 55 136 C54.55431709 127.71772584 54.9487156 120.52170373 57 112.5 C59.18875419 103.59338122 59.39406662 94.80346227 59.375 85.6875 C59.37717529 84.66221191 59.37717529 84.66221191 59.37939453 83.61621094 C59.37779094 76.94848318 59.27492073 71.3092226 57 65 C56.79375 63.72125 56.5875 62.4425 56.375 61.125 C55.34721122 56.22194203 53.2207302 51.9542742 51 47.5 C50.64341309 46.78086426 50.28682617 46.06172852 49.91943359 45.32080078 C48.16995843 41.50831903 48.16995843 41.50831903 45 39 C45 38.34 45 37.68 45 37 C43.68 36.34 42.36 35.68 41 35 C41 34.01 41 33.02 41 32 C39.35 31.67 37.7 31.34 36 31 C36 30.01 36 29.02 36 28 C35.34 27.67 34.68 27.34 34 27 C34 26.34 34 25.68 34 25 C33.34 25 32.68 25 32 25 C31.4225 24.2575 30.845 23.515 30.25 22.75 C27.78203075 19.73359314 25.25824572 18.10428369 22 16 C20.66666667 14.66666667 19.33333333 13.33333333 18 12 C17.01 11.67 16.02 11.34 15 11 C15 10.34 15 9.68 15 9 C13.39125 8.62875 13.39125 8.62875 11.75 8.25 C7.9040083 6.96800277 6.6439434 5.91745479 4 3 C1.86690808 1.76487921 1.86690808 1.76487921 0 1 C0 0.67 0 0.34 0 0 Z " fill="#AA4D3A" transform="translate(285,96)"/>
<path d="M0 0 C0.66 0.33 1.32 0.66 2 1 C1.54109375 1.36351562 1.0821875 1.72703125 0.609375 2.1015625 C-2.48778482 4.63915143 -5.17467317 6.96097997 -7.3125 10.375 C-7.869375 11.24125 -8.42625 12.1075 -9 13 C-9.66 13 -10.32 13 -11 13 C-11.226875 13.556875 -11.45375 14.11375 -11.6875 14.6875 C-13.89096776 18.56980033 -16.80265291 21.2872934 -20.625 23.5625 C-23.08392993 24.82817856 -23.08392993 24.82817856 -24.375 27 C-26.71509458 29.8801164 -29.60395954 30.64158382 -33 32 C-33.66 32.66 -34.32 33.32 -35 34 C-37.625 34.125 -37.625 34.125 -40 34 C-36.89920462 29.75076189 -33.46486699 26.81726498 -29.3125 23.6875 C-25.23345596 20.55377323 -21.23655615 17.41172978 -17.4375 13.9375 C-11.9244934 8.91523452 -5.94896017 4.48700551 0 0 Z " fill="#81232C" transform="translate(126,302)"/>
<path d="M0 0 C4.3290405 4.3290405 3.24863933 10.77230484 3.25097656 16.53125 C3.05909354 31.2771695 -0.67125217 45.70497125 -4 60 C-4.33 60 -4.66 60 -5 60 C-5.44865295 51.66253268 -5.04279556 44.29107789 -3.0625 36.1875 C-0.18652886 24.28027803 -0.16564624 12.19641874 0 0 Z " fill="#C25247" transform="translate(345,172)"/>
<path d="M0 0 C2.32421875 0.19140625 2.32421875 0.19140625 5 1 C6.58203125 3.21484375 6.58203125 3.21484375 7.8125 5.9375 C8.23144531 6.83339844 8.65039062 7.72929688 9.08203125 8.65234375 C10 11 10 11 10 13 C11.32 13 12.64 13 14 13 C14.2475 13.928125 14.495 14.85625 14.75 15.8125 C16.09814716 19.25027527 17.08621743 19.9603522 20 22 C20 22.99 20 23.98 20 25 C20.66 25 21.32 25 22 25 C23.625 26.3125 23.625 26.3125 25 28 C25 28.99 25 29.98 25 31 C25.99 31.33 26.98 31.66 28 32 C28.70151152 33.3153341 29.36525925 34.65117592 30 36 C30.515625 36.495 31.03125 36.99 31.5625 37.5 C33.26316011 39.27460185 33.58794182 40.61006256 34 43 C34.66 43 35.32 43 36 43 C36 43.66 36 44.32 36 45 C36.66 45 37.32 45 38 45 C38.66 46.65 39.32 48.3 40 50 C37 50 37 50 35.640625 48.66162109 C34.95226562 47.72697021 34.95226562 47.72697021 34.25 46.7734375 C33.72986328 46.07863281 33.20972656 45.38382813 32.67382812 44.66796875 C32.12146484 43.91128906 31.56910156 43.15460938 31 42.375 C29.82377787 40.79883612 28.64668219 39.22332379 27.46875 37.6484375 C26.58896484 36.46459473 26.58896484 36.46459473 25.69140625 35.25683594 C23.34699067 32.12869252 20.93002961 29.06177418 18.5 26 C14.2455964 20.60289451 10.01456461 15.18796597 5.8125 9.75 C4.94625 8.64011719 4.94625 8.64011719 4.0625 7.5078125 C3.26779297 6.47527344 3.26779297 6.47527344 2.45703125 5.421875 C1.98241455 4.80924805 1.50779785 4.19662109 1.01879883 3.56542969 C0 2 0 2 0 0 Z " fill="#B75243" transform="translate(152,107)"/>
<path d="M0 0 C1.36221992 3.78027612 0.66136924 6.63686518 -0.1875 10.50390625 C-0.39417549 11.45123878 -0.39417549 11.45123878 -0.60502625 12.41770935 C-1.05818703 14.46883587 -1.52734804 16.51578254 -2 18.5625 C-2.15828278 19.25819092 -2.31656555 19.95388184 -2.47964478 20.6706543 C-5.71175351 34.79054124 -9.52675022 48.49573892 -17 61 C-17.33 61 -17.66 61 -18 61 C-17.63297916 56.77926029 -16.83529151 53.34696613 -15.1875 49.4375 C-12.5398629 43.11949233 -10.81290708 36.59619267 -9 30 C-8.25611609 27.37324038 -7.50320162 24.74910063 -6.75 22.125 C-6.24726563 20.36542969 -6.24726563 20.36542969 -5.734375 18.5703125 C-5.49203125 17.72210938 -5.2496875 16.87390625 -5 16 C-4.34 16 -3.68 16 -3 16 C-2.95101563 15.34773437 -2.90203125 14.69546875 -2.8515625 14.0234375 C-2.42757771 9.06720147 -1.84334427 4.66980549 0 0 Z " fill="#A9403D" transform="translate(339,232)"/>
<path d="M0 0 C55.935 0.495 55.935 0.495 113 1 C113 1.33 113 1.66 113 2 C77.03 2 41.06 2 4 2 C4.33 3.98 4.66 5.96 5 8 C2.5 5.6875 2.5 5.6875 0 3 C0 2.01 0 1.02 0 0 Z " fill="#C05B44" transform="translate(139,89)"/>
<path d="M0 0 C-0.08436933 2.86855713 -0.58692181 4.55682315 -2.5546875 6.66796875 C-7.51440024 11 -7.51440024 11 -10 11 C-10.33 12.32 -10.66 13.64 -11 15 C-11.928125 15.12375 -11.928125 15.12375 -12.875 15.25 C-15.17469437 15.78131326 -15.17469437 15.78131326 -15.9375 17.9375 C-17.38875376 20.75463965 -19.09933057 20.95873405 -22 22 C-22.33 22.66 -22.66 23.32 -23 24 C-23.99 24 -24.98 24 -26 24 C-26 24.66 -26 25.32 -26 26 C-28.31 26.66 -30.62 27.32 -33 28 C-30.27855962 24.38825082 -27.47332467 21.56199605 -23.9375 18.75 C-22.49310547 17.58984375 -22.49310547 17.58984375 -21.01953125 16.40625 C-20.02308594 15.6121875 -19.02664062 14.818125 -18 14 C-16.03852324 12.4205625 -14.08008181 10.83734653 -12.125 9.25 C-11.26132813 8.55390625 -10.39765625 7.8578125 -9.5078125 7.140625 C-6.89400026 4.97568308 -6.89400026 4.97568308 -4.3046875 2.234375 C-2 0 -2 0 0 0 Z " fill="#852830" transform="translate(235,214)"/>
<path d="M0 0 C-0.25 2.375 -0.25 2.375 -1 5 C-3.0625 6.3125 -3.0625 6.3125 -5 7 C-5 7.66 -5 8.32 -5 9 C-5.99 9.33 -6.98 9.66 -8 10 C-9.68933922 11.6436814 -11.35259924 13.3142876 -13 15 C-19.41804511 20.80601504 -19.41804511 20.80601504 -23 22 C-24.34291094 21.70763193 -25.67871882 21.37829212 -27 21 C-20.28624696 15.2075503 -13.5643243 9.4240788 -6.75 3.75 C-5.87859375 3.02296875 -5.0071875 2.2959375 -4.109375 1.546875 C-2 0 -2 0 0 0 Z " fill="#BA3644" transform="translate(180,260)"/>
<path d="M0 0 C0.66 0.33 1.32 0.66 2 1 C1.67 1.33 1.34 1.66 1 2 C39.115 2.495 39.115 2.495 78 3 C78 2.34 78 1.68 78 1 C79.32 1.66 80.64 2.32 82 3 C82 3.33 82 3.66 82 4 C54.28 4 26.56 4 -2 4 C-1.34 2.68 -0.68 1.36 0 0 Z " fill="#F94A55" transform="translate(164,335)"/>
<path d="M0 0 C0.66 0.66 1.32 1.32 2 2 C4.10820797 1.6814823 4.10820797 1.6814823 6 1 C-1.64730314 10.12559222 -17.76804003 14.15829783 -29 16 C-31.33268132 16.055157 -33.66777895 16.07203772 -36 16 C-36 15.67 -36 15.34 -36 15 C-34.35 14.67 -32.7 14.34 -31 14 C-31 13.67 -31 13.34 -31 13 C-29.83082031 12.80664062 -28.66164062 12.61328125 -27.45703125 12.4140625 C-25.90880468 12.15133314 -24.3606303 11.88829608 -22.8125 11.625 C-22.04357422 11.49867188 -21.27464844 11.37234375 -20.48242188 11.2421875 C-13.98268517 10.12635287 -9.62117051 8.90999366 -5 4 C-3.34808509 2.64843325 -1.68477344 1.31037934 0 0 Z " fill="#9A3435" transform="translate(284,324)"/>
<path d="M0 0 C2.3125 0.1875 2.3125 0.1875 5 1 C8 5.03448276 8 5.03448276 8 8 C8.639375 8.268125 9.27875 8.53625 9.9375 8.8125 C12 10 12 10 13 13 C13.99 13.33 14.98 13.66 16 14 C16.71727778 15.64551962 17.38325228 17.31422289 18 19 C18.66 19.66 19.32 20.32 20 21 C20.39764263 22.98821313 20.73775349 24.98944339 21 27 C15.8913192 22.28429465 11.86671179 16.78493465 7.6875 11.25 C6.94693359 10.27933594 6.20636719 9.30867187 5.44335938 8.30859375 C0 1.1343966 0 1.1343966 0 0 Z " fill="#AD493E" transform="translate(191,159)"/>
<path d="M0 0 C0.99 0.33 1.98 0.66 3 1 C3 1.66 3 2.32 3 3 C3.99 3.33 4.98 3.66 6 4 C7.46338735 6.36185309 8.72213805 8.63874465 9.9375 11.125 C10.28941406 11.83986572 10.64132812 12.55473145 11.00390625 13.29125977 C15.632088 23.03508223 18.7645248 33.10552156 18 44 C16.45004273 41.17549109 15.64903637 38.73345477 15.125 35.5625 C13.72529744 28.08631095 12.00049493 19.55963508 8 13 C7.01 12.34 6.02 11.68 5 11 C5 9.68 5 8.36 5 7 C4.01 6.67 3.02 6.34 2 6 C0.8125 2.9375 0.8125 2.9375 0 0 Z " fill="#E56555" transform="translate(327,132)"/>
<path d="M0 0 C1.32 0 2.64 0 4 0 C5.59765625 1.64453125 5.59765625 1.64453125 7.0625 3.8125 C8.51203654 5.92336356 9.83909974 7.84061409 11.66015625 9.64453125 C13 11 13 11 13.375 12.875 C14.32445517 16.10314757 16.57554345 17.75737769 19 20 C20 21 20 21 20.0625 23.5625 C20.041875 24.366875 20.02125 25.17125 20 26 C19.67 25.01 19.34 24.02 19 23 C18.42121094 22.73574219 17.84242188 22.47148437 17.24609375 22.19921875 C13.99895612 20.46552962 12.20081846 17.71839909 10.0625 14.8125 C9.62373535 14.22823242 9.1849707 13.64396484 8.73291016 13.04199219 C7.47973814 11.36768364 6.23805962 9.68550054 5 8 C4.41863281 7.21496094 3.83726562 6.42992187 3.23828125 5.62109375 C0 1.17657593 0 1.17657593 0 0 Z " fill="#AE4740" transform="translate(216,191)"/>
<path d="M0 0 C4.44433642 3.97237149 6.9927564 8.15359901 9.6875 13.4375 C10.07744141 14.17548828 10.46738281 14.91347656 10.86914062 15.67382812 C13.95142191 21.60129214 15.95708819 27.53052388 17.625 34 C17.88539063 34.99 18.14578125 35.98 18.4140625 37 C19.01483192 40.07593941 19.10232991 42.87428625 19 46 C16.63278789 43.63278789 16.33154036 42.15068041 15.5 38.9375 C15.23574219 37.93976563 14.97148437 36.94203125 14.69921875 35.9140625 C14.13009243 33.5421729 13.70682129 31.21554031 13.3125 28.8125 C12.31276339 24.08098795 10.20145074 19.9283252 8.0625 15.625 C7.71421143 14.92221924 7.36592285 14.21943848 7.00708008 13.49536133 C5.09628788 9.70475119 5.09628788 9.70475119 2.41967773 6.45068359 C0.49111104 4.47999687 0.3618474 2.67767076 0 0 Z " fill="#662A20" transform="translate(328,128)"/>
<path d="M0 0 C0.66 0 1.32 0 2 0 C2 0.99 2 1.98 2 3 C26.09 3 50.18 3 75 3 C75 3.33 75 3.66 75 4 C49.26 4 23.52 4 -3 4 C-2.01 2.68 -1.02 1.36 0 0 Z " fill="#B93B4B" transform="translate(86,336)"/>
<path d="M0 0 C0.66 0.33 1.32 0.66 2 1 C1.12360894 2.49076829 0.22303672 3.96733869 -0.6875 5.4375 C-1.43580078 6.67306641 -1.43580078 6.67306641 -2.19921875 7.93359375 C-4.38099448 10.43719323 -5.75480334 10.69593558 -9 11 C-9 11.66 -9 12.32 -9 13 C-9.86625 13.226875 -10.7325 13.45375 -11.625 13.6875 C-15.61778814 15.24025095 -17.84248305 17.14319895 -21 20 C-21.66 19.67 -22.32 19.34 -23 19 C-16.8763884 13.42789379 -10.40793825 8.33922703 -3.87890625 3.2578125 C-1.87210991 1.70488259 -1.87210991 1.70488259 0 0 Z " fill="#6D2026" transform="translate(151,282)"/>
<path d="M0 0 C-1.33128665 3.74217391 -2.97931791 6.57380269 -5.4375 9.6875 C-6.03433594 10.45449219 -6.63117188 11.22148437 -7.24609375 12.01171875 C-9 14 -9 14 -12 16 C-12 14.35 -12 12.7 -12 11 C-11.01 11 -10.02 11 -9 11 C-9.020625 10.236875 -9.04125 9.47375 -9.0625 8.6875 C-9 6 -9 6 -8 3 C-5.07920195 0.92469613 -3.62453269 0 0 0 Z " fill="#D6484C" transform="translate(321,293)"/>
<path d="M0 0 C2.97 0 5.94 0 9 0 C8.34 1.32 7.68 2.64 7 4 C6.61250787 6.32495277 6.27017161 8.65851268 6 11 C4.1875 10.8125 4.1875 10.8125 2 10 C0.25 7.4375 0.25 7.4375 -1 5 C0.32 5.33 1.64 5.66 3 6 C3 5.34 3 4.68 3 4 C2.01 4 1.02 4 0 4 C0 2.68 0 1.36 0 0 Z " fill="#E55F49" transform="translate(145,92)"/>
<path d="M0 0 C3 1 3 1 4 2.875 C4.33 3.57625 4.66 4.2775 5 5 C5.515625 5.495 6.03125 5.99 6.5625 6.5 C8.26316011 8.27460185 8.58794182 9.61006256 9 12 C9.66 12 10.32 12 11 12 C11 12.66 11 13.32 11 14 C11.66 14 12.32 14 13 14 C13.66 15.65 14.32 17.3 15 19 C12 19 12 19 10.55786133 17.57885742 C10.0708374 16.92763916 9.58381348 16.2764209 9.08203125 15.60546875 C8.55029297 14.89712891 8.01855469 14.18878906 7.47070312 13.45898438 C6.92349609 12.70939453 6.37628906 11.95980469 5.8125 11.1875 C4.97428711 10.08051758 4.97428711 10.08051758 4.11914062 8.95117188 C0 3.39360119 0 3.39360119 0 0 Z " fill="#BC5449" transform="translate(177,138)"/>
<path d="M0 0 C0.99 0.33 1.98 0.66 3 1 C0.53727541 4.43022354 -0.79341119 6.27472607 -5 7 C-5.33 7.66 -5.66 8.32 -6 9 C-6.99 9.33 -7.98 9.66 -9 10 C-10.70586575 11.62652316 -12.3777546 13.29006566 -14 15 C-14.99 14.67 -15.98 14.34 -17 14 C-14.91784697 12.22776281 -12.83433081 10.45717274 -10.75 8.6875 C-10.16347656 8.18798828 -9.57695313 7.68847656 -8.97265625 7.17382812 C-7.32226125 5.77377394 -5.66165493 4.38664787 -4 3 C-3.26265625 2.36707031 -2.5253125 1.73414063 -1.765625 1.08203125 C-1.18296875 0.72496094 -0.6003125 0.36789062 0 0 Z " fill="#AF3643" transform="translate(137,295)"/>
<path d="M0 0 C0.66 0 1.32 0 2 0 C1.25403037 7.4596963 -0.36746129 14.68951218 -2 22 C-2.33 22 -2.66 22 -3 22 C-3.55353075 6.07061503 -3.55353075 6.07061503 0 0 Z " fill="#AF473F" transform="translate(343,210)"/>
<path d="M0 0 C7.74561656 2.31841584 14.44585486 4.85076788 20 11 C20.86625 11.86625 20.86625 11.86625 21.75 12.75 C22.1625 13.1625 22.575 13.575 23 14 C22.236875 13.690625 21.47375 13.38125 20.6875 13.0625 C18.81210323 12.32106407 16.91315348 11.63771783 15 11 C15 10.34 15 9.68 15 9 C13.39125 8.62875 13.39125 8.62875 11.75 8.25 C7.9040083 6.96800277 6.6439434 5.91745479 4 3 C1.86690808 1.76487921 1.86690808 1.76487921 0 1 C0 0.67 0 0.34 0 0 Z " fill="#AC513F" transform="translate(285,96)"/>
<path d="M0 0 C0.33 0.66 0.66 1.32 1 2 C-2.82527077 10.72161734 -8.44125178 18.31584804 -14 26 C-14.33 25.34 -14.66 24.68 -15 24 C-13.79621805 21.79455257 -12.55462292 19.72541898 -11.1875 17.625 C-7.85525854 12.44864583 -7.85525854 12.44864583 -5 7 C-4.34 7 -3.68 7 -3 7 C-2.87625 6.401875 -2.7525 5.80375 -2.625 5.1875 C-2 3 -2 3 0 0 Z " fill="#ED464B" transform="translate(215,249)"/>
<path d="M0 0 C0.99 0 1.98 0 3 0 C2.37954537 4.23322844 0.89476441 7.52290295 -1.0625 11.3125 C-1.61035156 12.38113281 -2.15820312 13.44976562 -2.72265625 14.55078125 C-3.14417969 15.35902344 -3.56570313 16.16726563 -4 17 C-4.33 17 -4.66 17 -5 17 C-4.46246904 10.81839396 -2.45417612 5.673142 0 0 Z " fill="#B44342" transform="translate(326,276)"/>
<path d="M0 0 C0.66 0.33 1.32 0.66 2 1 C0.88200014 2.33920838 -0.24461897 3.67122556 -1.375 5 C-2.31472656 6.11375 -2.31472656 6.11375 -3.2734375 7.25 C-4.12808594 8.11625 -4.12808594 8.11625 -5 9 C-5.66 9 -6.32 9 -7 9 C-7 9.66 -7 10.32 -7 11 C-7.99 11.66 -8.98 12.32 -10 13 C-11.32 12.67 -12.64 12.34 -14 12 C-9.38 8.04 -4.76 4.08 0 0 Z " fill="#832832" transform="translate(167,269)"/>
<path d="M0 0 C6.93 0.33 13.86 0.66 21 1 C21 1.33 21 1.66 21 2 C15.39 2 9.78 2 4 2 C4.33 3.98 4.66 5.96 5 8 C2.5 5.6875 2.5 5.6875 0 3 C0 2.01 0 1.02 0 0 Z " fill="#A55042" transform="translate(139,89)"/>
<path d="M0 0 C0.66 0.66 1.32 1.32 2 2 C4.10820797 1.6814823 4.10820797 1.6814823 6 1 C3.19380839 4.3014019 -0.18040412 6.05669683 -4 8 C-5.32 8 -6.64 8 -8 8 C-6.6636586 3.99097581 -4.50572968 3.19108105 -1 1 C-0.67 0.67 -0.34 0.34 0 0 Z " fill="#C14348" transform="translate(284,324)"/>
<path d="M0 0 C0.33 0.99 0.66 1.98 1 3 C0.01 3.33 -0.98 3.66 -2 4 C-2 4.99 -2 5.98 -2 7 C-4.3125 7.3125 -4.3125 7.3125 -7 7 C-8.8125 4.5 -8.8125 4.5 -10 2 C-8.72125 2.04125 -7.4425 2.0825 -6.125 2.125 C-3.98128508 2.24212873 -3.98128508 2.24212873 -2 2 C-1.34 1.34 -0.68 0.68 0 0 Z " fill="#F05B50" transform="translate(222,184)"/>
<path d="M0 0 C2.2477975 2.05233685 3.0022242 3.00667261 4 6 C4.66 6.66 5.32 7.32 6 8 C6.39764263 9.98821313 6.73775349 11.98944339 7 14 C3.74483572 10.83525695 0.67991207 7.67247209 -2 4 C-2 3.34 -2 2.68 -2 2 C-1.34 2 -0.68 2 0 2 C0 1.34 0 0.68 0 0 Z " fill="#AA453B" transform="translate(205,172)"/>
<path d="M0 0 C0.66 0.33 1.32 0.66 2 1 C1.0980639 2.48819457 0.17785871 3.96532813 -0.75 5.4375 C-1.26046875 6.26121094 -1.7709375 7.08492188 -2.296875 7.93359375 C-4.1792182 10.21744593 -5.1157546 10.65514457 -8 11 C-8 8 -8 8 -5.6875 5.5 C-4.800625 4.675 -3.91375 3.85 -3 3 C-2.401875 2.401875 -1.80375 1.80375 -1.1875 1.1875 C-0.795625 0.795625 -0.40375 0.40375 0 0 Z " fill="#942733" transform="translate(151,282)"/>
<path d="M0 0 C5.80165739 0.97458672 10.83982722 2.01253155 16 5 C11.96678179 6.61328728 8.95345413 5.45653573 5 4 C2.0625 1.875 2.0625 1.875 0 0 Z " fill="#DF6B54" transform="translate(275,94)"/>
<path d="M0 0 C0.99 0 1.98 0 3 0 C1.5682479 5.01113235 -0.98445693 6.94469549 -5 10 C-5 8.35 -5 6.7 -5 5 C-4.01 5 -3.02 5 -2 5 C-2 4.01 -2 3.02 -2 2 C-1.34 2 -0.68 2 0 2 C0 1.34 0 0.68 0 0 Z " fill="#AD4243" transform="translate(314,299)"/>
<path d="M0 0 C1 3 1 3 -0.109375 5.62890625 C-0.65078125 6.59699219 -1.1921875 7.56507813 -1.75 8.5625 C-2.54664063 10.01849609 -2.54664063 10.01849609 -3.359375 11.50390625 C-5 14 -5 14 -8 16 C-6.42986223 10.03347646 -3.24970218 5.17090975 0 0 Z " fill="#ED434A" transform="translate(197,278)"/>
<path d="M0 0 C0.66 0.33 1.32 0.66 2 1 C1.74609375 2.85546875 1.74609375 2.85546875 1 5 C-0.77734375 6.30078125 -0.77734375 6.30078125 -2.9375 7.3125 C-3.64777344 7.65925781 -4.35804688 8.00601562 -5.08984375 8.36328125 C-6.03537109 8.67845703 -6.03537109 8.67845703 -7 9 C-7.66 8.67 -8.32 8.34 -9 8 C-6.03 5.36 -3.06 2.72 0 0 Z " fill="#82252B" transform="translate(189,251)"/>
<path d="M0 0 C0.99 0.33 1.98 0.66 3 1 C0 4 -3 7 -6 10 C-6.66 9.67 -7.32 9.34 -8 9 C-7.67 8.01 -7.34 7.02 -7 6 C-6.34 6 -5.68 6 -5 6 C-5 5.34 -5 4.68 -5 4 C-4.01 4 -3.02 4 -2 4 C-2 3.34 -2 2.68 -2 2 C-1.34 2 -0.68 2 0 2 C0 1.34 0 0.68 0 0 Z " fill="#A64040" transform="translate(305,310)"/>
<path d="M0 0 C-0.0625 2.3125 -0.0625 2.3125 -1 5 C-4.50148842 6.88042897 -7.0080306 8 -11 8 C-9.54712339 6.66072279 -8.08752741 5.32873153 -6.625 4 C-5.81289062 3.2575 -5.00078125 2.515 -4.1640625 1.75 C-2 0 -2 0 0 0 Z " fill="#7E262C" transform="translate(180,260)"/>
<path d="M0 0 C3.70567976 2.69503983 4.29823693 6.71682541 5 11 C5.125 14.5 5.125 14.5 5 17 C2.5863604 14.5863604 2.24467148 12.90164101 1.375 9.625 C1.11460937 8.66851562 0.85421875 7.71203125 0.5859375 6.7265625 C0 4 0 4 0 0 Z " fill="#8A3C2E" transform="translate(342,157)"/>
<path d="M0 0 C-0.36969853 2.65614176 -0.70475592 3.74758254 -2.77734375 5.51953125 C-3.49019531 5.94621094 -4.20304688 6.37289062 -4.9375 6.8125 C-5.64777344 7.25207031 -6.35804688 7.69164062 -7.08984375 8.14453125 C-8.03537109 8.56798828 -8.03537109 8.56798828 -9 9 C-9.66 8.67 -10.32 8.34 -11 8 C-9.54712339 6.66072279 -8.08752741 5.32873153 -6.625 4 C-5.81289062 3.2575 -5.00078125 2.515 -4.1640625 1.75 C-2 0 -2 0 0 0 Z " fill="#79242A" transform="translate(202,242)"/>
<path d="M0 0 C0.66 0.33 1.32 0.66 2 1 C0.6875 3 0.6875 3 -1 5 C-1.99 5 -2.98 5 -4 5 C-4 5.66 -4 6.32 -4 7 C-6.31 7.66 -8.62 8.32 -11 9 C-8.30152216 5.20214229 -6.39131539 3.50229211 -2 2 C-1.34 1.34 -0.68 0.68 0 0 Z " fill="#8D2E35" transform="translate(213,233)"/>
<path d="M0 0 C3.16115776 1.36983503 3.9927092 1.9890638 6 5 C6.125 7.6875 6.125 7.6875 6 10 C5.67 9.01 5.34 8.02 5 7 C4.34 6.71125 3.68 6.4225 3 6.125 C1 5 1 5 0.25 2.375 C0.1675 1.59125 0.085 0.8075 0 0 Z " fill="#C64E48" transform="translate(230,207)"/>
<path d="M0 0 C3.74089145 3.74089145 3.7191672 7.98374519 4 13 C4 13.66 4 14.32 4 15 C3.34 15 2.68 15 2 15 C2 14.34 2 13.68 2 13 C1.34 12.67 0.68 12.34 0 12 C0.66 12 1.32 12 2 12 C1.44687265 7.97007218 0.8441938 3.97977076 0 0 Z " fill="#F66149" transform="translate(336,147)"/>
<path d="M0 0 C0.66 0 1.32 0 2 0 C2 0.99 2 1.98 2 3 C5.3 3 8.6 3 12 3 C12 3.33 12 3.66 12 4 C7.05 4 2.1 4 -3 4 C-2.01 2.68 -1.02 1.36 0 0 Z " fill="#A93B4A" transform="translate(86,336)"/>
<path d="M0 0 C1 3 1 3 0.109375 5.19140625 C-0.33921875 5.97386719 -0.7878125 6.75632812 -1.25 7.5625 C-1.90742188 8.74005859 -1.90742188 8.74005859 -2.578125 9.94140625 C-4 12 -4 12 -7 14 C-6.67 12.68 -6.34 11.36 -6 10 C-5.34 10 -4.68 10 -4 10 C-3.896875 9.278125 -3.79375 8.55625 -3.6875 7.8125 C-2.94013068 4.75508007 -1.71954811 2.61670365 0 0 Z " fill="#EA3F49" transform="translate(173,318)"/>
<path d="M0 0 C2.99324263 1.0975223 3.84610901 1.67682892 5.25 4.625 C5.4975 5.40875 5.745 6.1925 6 7 C4.125 6.6875 4.125 6.6875 2 6 C0 3 0 3 0 0 Z " fill="#BB5049" transform="translate(199,167)"/>
<path d="M0 0 C1.32 0.33 2.64 0.66 4 1 C4 1.66 4 2.32 4 3 C4.99 3.33 5.98 3.66 7 4 C5.68 4.99 4.36 5.98 3 7 C0 2.25 0 2.25 0 0 Z " fill="#F76647" transform="translate(296,104)"/>
<path d="M0 0 C0.68359375 1.765625 0.68359375 1.765625 1 4 C-0.21484375 5.921875 -0.21484375 5.921875 -1.9375 7.75 C-2.50339844 8.36359375 -3.06929687 8.9771875 -3.65234375 9.609375 C-4.31943359 10.29773438 -4.31943359 10.29773438 -5 11 C-5 7.58678765 -4.33132534 6.60527115 -2.5 3.8125 C-2.0359375 3.09707031 -1.571875 2.38164062 -1.09375 1.64453125 C-0.7328125 1.10183594 -0.371875 0.55914062 0 0 Z " fill="#ED4849" transform="translate(228,227)"/>
<path d="M0 0 C0.66 0.33 1.32 0.66 2 1 C1.01 1 0.02 1 -1 1 C-0.67 0.67 -0.34 0.34 0 0 Z M-5 2 C-2.9375 2.4375 -2.9375 2.4375 -1 3 C-1.9590625 3.433125 -1.9590625 3.433125 -2.9375 3.875 C-5.15206079 4.82823451 -5.15206079 4.82823451 -6 7 C-6 3 -6 3 -5 2 Z " fill="#C03344" transform="translate(158,280)"/>
<path d="M0 0 C0.66 0 1.32 0 2 0 C2.33 0.99 2.66 1.98 3 3 C4.32848691 4.00642948 5.66150329 5.00692179 7 6 C7 6.66 7 7.32 7 8 C5.1875 7.9375 5.1875 7.9375 3 7 C1.25 3.4375 1.25 3.4375 0 0 Z " fill="#BB5445" transform="translate(165,123)"/>
<path d="M0 0 C0.66 0 1.32 0 2 0 C2 0.66 2 1.32 2 2 C3.32 2 4.64 2 6 2 C6 3.98 6 5.96 6 8 C1.125 3.375 1.125 3.375 0 0 Z " fill="#9F4539" transform="translate(160,118)"/>
<path d="M0 0 C1.32 0 2.64 0 4 0 C3.67 0.99 3.34 1.98 3 3 C0.4375 4.1875 0.4375 4.1875 -2 5 C-2 4.01 -2 3.02 -2 2 C-1.34 2 -0.68 2 0 2 C0 1.34 0 0.68 0 0 Z " fill="#BD4246" transform="translate(292,320)"/>
<path d="M0 0 C1.32 0 2.64 0 4 0 C4.66 1.65 5.32 3.3 6 5 C4.125 4.75 4.125 4.75 2 4 C0.75 1.9375 0.75 1.9375 0 0 Z " fill="#BB4A43" transform="translate(216,191)"/>
<path d="M0 0 C3.625 0.375 3.625 0.375 7 1 C7 1.66 7 2.32 7 3 C6.34 3 5.68 3 5 3 C5 3.66 5 4.32 5 5 C4.34 4.67 3.68 4.34 3 4 C3 3.67 3 3.34 3 3 C1.35 2.67 -0.3 2.34 -2 2 C-1.34 1.34 -0.68 0.68 0 0 Z " fill="#F36847" transform="translate(285,99)"/>
<path d="M0 0 C2.31 0 4.62 0 7 0 C6.67 0.66 6.34 1.32 6 2 C5.34 2 4.68 2 4 2 C3.67 2.99 3.34 3.98 3 5 C2.01 3.35 1.02 1.7 0 0 Z " fill="#BF493C" transform="translate(212,186)"/>
<path d="" fill="#000000" transform="translate(0,0)"/>
<path d="" fill="#000000" transform="translate(0,0)"/>
<path d="" fill="#000000" transform="translate(0,0)"/>
<path d="" fill="#000000" transform="translate(0,0)"/>
<path d="" fill="#000000" transform="translate(0,0)"/>
<path d="" fill="#000000" transform="translate(0,0)"/>
<path d="" fill="#000000" transform="translate(0,0)"/>
<path d="" fill="#000000" transform="translate(0,0)"/>
<path d="" fill="#000000" transform="translate(0,0)"/>
<path d="" fill="#000000" transform="translate(0,0)"/>
<path d="" fill="#000000" transform="translate(0,0)"/>
<path d="" fill="#000000" transform="translate(0,0)"/>
<path d="" fill="#000000" transform="translate(0,0)"/>
<path d="" fill="#000000" transform="translate(0,0)"/>
<path d="" fill="#000000" transform="translate(0,0)"/>
<path d="" fill="#000000" transform="translate(0,0)"/>
<path d="" fill="#000000" transform="translate(0,0)"/>
<path d="" fill="#000000" transform="translate(0,0)"/>
<path d="" fill="#000000" transform="translate(0,0)"/>
<path d="" fill="#000000" transform="translate(0,0)"/>
<path d="" fill="#000000" transform="translate(0,0)"/>
<path d="" fill="#000000" transform="translate(0,0)"/>
<path d="" fill="#000000" transform="translate(0,0)"/>
<path d="" fill="#000000" transform="translate(0,0)"/>
<path d="" fill="#000000" transform="translate(0,0)"/>
<path d="" fill="#000000" transform="translate(0,0)"/>
<path d="" fill="#000000" transform="translate(0,0)"/>
<path d="" fill="#000000" transform="translate(0,0)"/>
<path d="" fill="#000000" transform="translate(0,0)"/>
<path d="" fill="#000000" transform="translate(0,0)"/>
<path d="" fill="#000000" transform="translate(0,0)"/>
<path d="" fill="#000000" transform="translate(0,0)"/>
<path d="" fill="#000000" transform="translate(0,0)"/>
<path d="" fill="#000000" transform="translate(0,0)"/>
<path d="" fill="#000000" transform="translate(0,0)"/>
<path d="" fill="#000000" transform="translate(0,0)"/>
<path d="" fill="#000000" transform="translate(0,0)"/>
<path d="" fill="#000000" transform="translate(0,0)"/>
<path d="" fill="#000000" transform="translate(0,0)"/>
<path d="" fill="#000000" transform="translate(0,0)"/>
<path d="" fill="#000000" transform="translate(0,0)"/>
<path d="" fill="#000000" transform="translate(0,0)"/>
<path d="" fill="#000000" transform="translate(0,0)"/>
<path d="" fill="#000000" transform="translate(0,0)"/>
<path d="" fill="#000000" transform="translate(0,0)"/>
<path d="" fill="#000000" transform="translate(0,0)"/>
<path d="" fill="#000000" transform="translate(0,0)"/>
<path d="" fill="#000000" transform="translate(0,0)"/>
<path d="" fill="#000000" transform="translate(0,0)"/>
<path d="" fill="#000000" transform="translate(0,0)"/>
<path d="" fill="#000000" transform="translate(0,0)"/>
<path d="" fill="#000000" transform="translate(0,0)"/>
<path d="" fill="#000000" transform="translate(0,0)"/>
<path d="" fill="#000000" transform="translate(0,0)"/>
<path d="" fill="#000000" transform="translate(0,0)"/>
<path d="" fill="#000000" transform="translate(0,0)"/>
<path d="" fill="#000000" transform="translate(0,0)"/>
<path d="" fill="#000000" transform="translate(0,0)"/>
<path d="" fill="#000000" transform="translate(0,0)"/>
<path d="" fill="#000000" transform="translate(0,0)"/>
<path d="" fill="#000000" transform="translate(0,0)"/>
<path d="" fill="#000000" transform="translate(0,0)"/>
<path d="" fill="#000000" transform="translate(0,0)"/>
<path d="" fill="#000000" transform="translate(0,0)"/>
<path d="" fill="#000000" transform="translate(0,0)"/>
<path d="" fill="#000000" transform="translate(0,0)"/>
<path d="" fill="#000000" transform="translate(0,0)"/>
<path d="" fill="#000000" transform="translate(0,0)"/>
<path d="" fill="#000000" transform="translate(0,0)"/>
<path d="" fill="#000000" transform="translate(0,0)"/>
<path d="" fill="#000000" transform="translate(0,0)"/>
<path d="" fill="#000000" transform="translate(0,0)"/>
<path d="" fill="#000000" transform="translate(0,0)"/>
<path d="" fill="#000000" transform="translate(0,0)"/>
<path d="" fill="#000000" transform="translate(0,0)"/>
<path d="" fill="#000000" transform="translate(0,0)"/>
<path d="" fill="#000000" transform="translate(0,0)"/>
<path d="" fill="#000000" transform="translate(0,0)"/>
<path d="" fill="#000000" transform="translate(0,0)"/>
<path d="" fill="#000000" transform="translate(0,0)"/>
<path d="" fill="#000000" transform="translate(0,0)"/>
<path d="" fill="#000000" transform="translate(0,0)"/>
<path d="" fill="#000000" transform="translate(0,0)"/>
<path d="" fill="#000000" transform="translate(0,0)"/>
<path d="" fill="#000000" transform="translate(0,0)"/>
<path d="" fill="#000000" transform="translate(0,0)"/>
<path d="" fill="#000000" transform="translate(0,0)"/>
<path d="" fill="#000000" transform="translate(0,0)"/>
</svg>
